<svg width="1440" height="1024" viewBox="0 0 1440 1024" fill="none" xmlns="http://www.w3.org/2000/svg">
<g clip-path="url(#clip0_505_25)">
<path d="M1358 372.49C1110.03 301.401 1067.64 241.939 962.635 293.379C832.849 340.063 708.502 372.49 558.44 372.49C381.816 372.49 157.64 429.158 -2 460.476V499.283V634H1698V499.283L1591.01 460.476C1495.9 432.627 1439.71 415.016 1358 372.49Z" fill="#B0CDBB"/>
<path d="M1211.8 546.436C1321 534.164 1455.78 564.126 1698 618.488V725H-2V554.268L116 546.436C200 546.436 275.33 539.983 338 518.242C585.97 462.036 722.6 432.147 827.6 472.818C909.969 511.038 964.684 531.274 1211.8 546.436Z" fill="#78A98B"/>
<path d="M771.347 633.579C863.266 644.507 891.719 655.3 914.433 680.219L1098.4 759.506L1306.22 680.219C1314.04 656.382 1323.35 650.273 1347.1 649.903L1554.91 633.579H1698V680.219V1058H-2V712.866V589C56 608 220.321 535.709 360 608L481 624L638.481 649.903C696.151 651.049 741 633.579 771.347 633.579Z" fill="#478C5D"/>
<path d="M1034.82 677.38C769.63 676.525 67.1994 677.38 -2 677.38V908H1698V677.38H1034.82Z" fill="#D8E9D7"/>
<path d="M750.424 707.403C839.857 704.765 887.428 683.016 909.527 677H1068.63H1311.33C1318.94 682.755 1375.1 696.054 1398.2 696.143L1515.74 703.462L1698 707.403V677H1311.33H1068.63H909.527H-2V688.261V744C44.405 729.924 213.452 744 349.352 726.546L621.153 703.462C677.263 703.185 705.333 704.124 750.424 707.403Z" fill="#ACC9AD"/>
<path d="M1456.55 838.949C1481.67 850.512 1515.33 860.945 1549.49 862.43C1589.68 864.177 1641.98 859.134 1698 852.838V1034H661.045H-2V855.025C18.1858 857.096 35.3631 859.246 47.6758 861.238C69.3555 864.744 106.668 864.515 151.069 862.377V855.025L157.063 862.079V845.078L164.056 861.71L167.553 855.025L172.456 861.238L177.043 857.512L183.536 860.572C292.839 853.784 429.28 839.096 487.224 839.096C519.782 839.096 572.269 847.061 612.095 853.516V846.081L621.357 855.025V839.689L631.076 856.619C639.455 857.992 646.769 859.183 652.554 860.057L661.045 846.081V856.619L663.543 850.881L666.54 861.253C673.443 861.268 680.886 861.268 688.99 861.268L689.418 846.523C692.473 846.084 700.53 813.254 707.504 799.922L733 793.946L785.373 779.686L826.066 793.946H858.218L869.271 822.005C961.002 809.668 1160.53 824.711 1217.92 779.686L1204.86 701.633C1208.64 689.179 1207.8 657.932 1210.89 630.325C1222.15 629.729 1221.15 615.36 1210.89 573.472C1212.42 547.854 1213.76 537.411 1217.92 533C1230.98 546.491 1236.01 539.745 1250.07 539.745C1254.02 571.704 1276.2 583.108 1298.3 617.798L1309.36 624.544C1318.54 698.603 1329.71 744.392 1329.24 772.906L1329.95 768.991C1331.77 756.96 1331.29 751.011 1329.95 740.66C1335.43 748.595 1337.78 754.044 1338.24 768.991C1342.59 760.729 1347.37 758.911 1355.67 755.752L1356.08 755.596C1346.68 768.738 1341.7 775.99 1338.24 786.734L1346.53 778.241C1353.94 783.255 1355.45 787.594 1356.08 796.515L1355.89 796.274C1352.49 791.95 1350.53 789.452 1343.52 785.95L1338.49 797.031C1379.03 808.618 1415.99 821.087 1456.55 838.949Z" fill="#3B6B53"/>
</g>
<defs>
<clipPath id="clip0_505_25">
<rect width="1440" height="1024" fill="white"/>
</clipPath>
</defs>
</svg>
