<svg width="80" height="80" viewBox="0 0 80 80" fill="none" xmlns="http://www.w3.org/2000/svg">
<path d="M59.9999 26.6667H56.6666V20C56.6666 10.8 49.1999 3.33337 39.9999 3.33337C30.7999 3.33337 23.3333 10.8 23.3333 20V26.6667H19.9999C16.3333 26.6667 13.3333 29.6667 13.3333 33.3334V66.6667C13.3333 70.3334 16.3333 73.3334 19.9999 73.3334H59.9999C63.6666 73.3334 66.6666 70.3334 66.6666 66.6667V33.3334C66.6666 29.6667 63.6666 26.6667 59.9999 26.6667ZM39.9999 56.6667C36.3333 56.6667 33.3333 53.6667 33.3333 50C33.3333 46.3334 36.3333 43.3334 39.9999 43.3334C43.6666 43.3334 46.6666 46.3334 46.6666 50C46.6666 53.6667 43.6666 56.6667 39.9999 56.6667ZM50.3332 26.6667H29.6666V20C29.6666 14.3 34.2999 9.66671 39.9999 9.66671C45.6999 9.66671 50.3332 14.3 50.3332 20V26.6667Z" fill="white"/>
</svg>
