<svg width="1700" height="750" viewBox="0 0 1700 750" fill="none" xmlns="http://www.w3.org/2000/svg">
<g clip-path="url(#clip0_501_11)">
<path d="M1360 214.49C1112.03 143.401 1069.64 83.9391 964.635 135.379C834.849 182.063 710.502 214.49 560.44 214.49C383.816 214.49 159.64 271.158 0 302.476V341.283V476H1700V341.283L1593.01 302.476C1497.9 274.627 1441.71 257.016 1360 214.49Z" fill="#B0CDBB"/>
<path d="M1213.8 388.436C1323 376.164 1457.78 406.126 1700 460.488V567H0V396.268L118 388.436C202 388.436 277.33 381.983 340 360.242C587.97 304.036 724.6 274.147 829.6 314.818C911.969 353.038 966.684 373.274 1213.8 388.436Z" fill="#78A98B"/>
<path d="M773.347 475.579C865.266 486.507 893.719 497.3 916.433 522.219L1100.4 601.506L1308.22 522.219C1316.04 498.382 1325.35 492.273 1349.1 491.903L1556.91 475.579H1700V522.219V900H0V554.866V431C58 450 222.321 377.709 362 450L483 466L640.481 491.903C698.151 493.049 743 475.579 773.347 475.579Z" fill="#478C5D"/>
<path d="M1036.82 519.38C771.63 518.525 69.1994 519.38 0 519.38V750H1700V519.38H1036.82Z" fill="#D8E9D7"/>
<path d="M752.424 549.403C841.857 546.765 889.428 525.016 911.527 519H1070.63H1313.33C1320.94 524.755 1377.1 538.054 1400.2 538.143L1517.74 545.462L1700 549.403V519H1313.33H1070.63H911.527H0V530.261V586C46.405 571.924 215.452 586 351.352 568.546L623.153 545.462C679.263 545.185 707.333 546.124 752.424 549.403Z" fill="#ACC9AD"/>
<path d="M1458.55 676.399C1483.67 687.866 1517.33 698.212 1551.49 699.684C1591.68 701.416 1643.98 696.416 1700 690.172V754H668.54H0V692.341C20.1858 694.394 37.3631 696.527 49.6758 698.502C71.3555 701.978 108.668 701.751 153.069 699.632V692.341L159.063 699.336V682.476L166.056 698.97L169.553 692.341L174.456 698.502L179.043 694.807L185.536 697.841C294.839 691.11 431.28 676.544 489.224 676.544C521.782 676.544 574.269 684.443 614.095 690.845V683.472L623.357 692.341V677.133L633.076 693.921C641.455 695.283 648.769 696.464 654.554 697.331L663.045 683.472V693.921L665.543 688.231L668.54 698.517C675.429 698.532 682.855 698.532 690.939 698.532H690.99L691.418 683.91C694.473 683.474 702.53 650.918 709.504 637.697L735 631.771L787.373 617.63L828.066 631.771H860.218L871.271 659.596C963.002 647.361 1162.53 662.279 1219.92 617.63L1206.86 540.228C1210.64 527.878 1209.8 496.891 1212.89 469.514C1224.15 468.923 1223.15 454.673 1212.89 413.135C1214.42 387.73 1215.76 377.374 1219.92 373C1232.98 386.378 1238.01 379.689 1252.07 379.689C1256.02 411.381 1278.2 422.69 1300.3 457.092L1311.36 463.781C1320.54 537.222 1331.71 582.63 1331.24 610.906L1331.95 607.024C1333.77 595.094 1333.29 589.193 1331.95 578.929C1337.43 586.798 1339.78 592.202 1340.24 607.024C1344.59 598.831 1349.37 597.028 1357.67 593.896L1358.08 593.74C1348.68 606.773 1343.7 613.965 1340.24 624.619L1348.53 616.197C1355.94 621.169 1357.45 625.472 1358.08 634.318L1357.89 634.08C1354.49 629.791 1352.53 627.314 1345.52 623.841L1340.49 634.831C1381.03 646.321 1417.99 658.686 1458.55 676.399Z" fill="#3B6B53"/>
</g>
<defs>
<clipPath id="clip0_501_11">
<rect width="1700" height="750" fill="white"/>
</clipPath>
</defs>
</svg>
